<svg width="120" height="54" viewBox="0 0 120 54" fill="none" xmlns="http://www.w3.org/2000/svg">
<path d="M119.92 6.78027H16.2472C10.5878 6.78027 6 11.3681 6 17.0275V17.0275C6 22.6868 10.5878 27.2747 16.2472 27.2747H46.9888C52.6481 27.2747 57.236 31.8625 57.236 37.5218V37.5218C57.236 43.1812 52.6481 47.769 46.9888 47.769H1.125" stroke="#FF3737" stroke-width="12"/>
<path d="M82.8539 6.45996L82.8539 53.533" stroke="#FF3737" stroke-width="12"/>
<path d="M120 6.78027H16.2472C10.5878 6.78027 6 11.3681 6 17.0275V17.0275C6 22.6868 10.5878 27.2747 16.2472 27.2747H46.9888C52.6481 27.2747 57.236 31.8625 57.236 37.5218V37.5218C57.236 43.1812 52.6481 47.769 46.9888 47.769H0.625" stroke="white" stroke-width="1.3"/>
<path d="M82.8539 6.45996L82.8539 53.533" stroke="white" stroke-width="1.3"/>
</svg>
