<svg width="14" height="15" viewBox="0 0 14 15" fill="none" xmlns="http://www.w3.org/2000/svg">
<g clip-path="url(#clip0)">
<path d="M12.5269 4.22571C12.2369 4.36599 12.1156 4.7149 12.2558 5.00472C12.6391 5.79641 12.8333 6.64976 12.8333 7.54199C12.8333 10.7584 10.2165 13.3753 7 13.3753C3.78355 13.3753 1.16667 10.7584 1.16667 7.54199C1.16667 4.32554 3.78355 1.70866 7 1.70866C8.33286 1.70866 9.58498 2.14388 10.6213 2.96718C10.8727 3.16785 11.2403 3.12583 11.4409 2.87362C11.6416 2.62154 11.5996 2.25439 11.3472 2.05402C10.1203 1.0789 8.5764 0.541992 7 0.541992C3.1404 0.541992 0 3.68239 0 7.54199C0 11.4016 3.1404 14.542 7 14.542C10.8596 14.542 14 11.4016 14 7.54199C14 6.47245 13.7664 5.44749 13.3059 4.49672C13.1659 4.2062 12.8158 4.08514 12.5269 4.22571Z" fill="black" fill-opacity="0.7"/>
<path d="M7.00008 2.87534C6.67808 2.87534 6.41675 3.13667 6.41675 3.45867V7.542C6.41675 7.864 6.67808 8.12534 7.00008 8.12534H9.91675C10.2387 8.12534 10.5001 7.864 10.5001 7.542C10.5001 7.22 10.2387 6.95867 9.91675 6.95867H7.58341V3.45867C7.58341 3.13667 7.32208 2.87534 7.00008 2.87534Z" fill="black" fill-opacity="0.7"/>
</g>
<defs>
<clipPath id="clip0">
<rect width="14" height="14" fill="white" transform="translate(0 0.541992)"/>
</clipPath>
</defs>
</svg>
