<svg width="19" height="18" viewBox="0 0 19 18" fill="none" xmlns="http://www.w3.org/2000/svg">
<g clip-path="url(#clip0)">
<path d="M18.4712 3.57617L13.0122 9.00004L18.4712 14.4239C18.5699 14.2177 18.6298 13.9896 18.6298 13.7461V4.25395C18.6298 4.01042 18.5699 3.78243 18.4712 3.57617Z" fill="#FF3737"/>
<path d="M17.0479 2.67188H2.21196C1.96843 2.67188 1.74044 2.73175 1.53418 2.83043L8.51139 9.7725C9.12832 10.3894 10.1315 10.3894 10.7485 9.7725L17.7257 2.83043C17.5194 2.73175 17.2914 2.67188 17.0479 2.67188Z" fill="#FF3737"/>
<path d="M0.788438 3.57617C0.689754 3.78243 0.629883 4.01042 0.629883 4.25395V13.7461C0.629883 13.9897 0.689754 14.2177 0.788438 14.4239L6.24747 9.00004L0.788438 3.57617Z" fill="#FF3737"/>
<path d="M12.2666 9.74561L11.4942 10.5181C10.4662 11.546 8.79359 11.546 7.76566 10.5181L6.99321 9.74561L1.53418 15.1695C1.74044 15.2682 1.96843 15.328 2.21196 15.328H17.0479C17.2914 15.328 17.5194 15.2682 17.7257 15.1695L12.2666 9.74561Z" fill="#FF3737"/>
</g>
<defs>
<clipPath id="clip0">
<rect width="18" height="18" fill="white" transform="translate(0.629883)"/>
</clipPath>
</defs>
</svg>
