<svg width="15" height="14" viewBox="0 0 15 14" fill="none" xmlns="http://www.w3.org/2000/svg">
<g clip-path="url(#clip0)">
<path d="M13.8919 2.7814L9.646 6.99997L13.8919 11.2185C13.9687 11.0581 14.0152 10.8808 14.0152 10.6914V3.30856C14.0152 3.11915 13.9687 2.94183 13.8919 2.7814Z" fill="black" fill-opacity="0.7"/>
<path d="M12.7847 2.07812H1.24567C1.05626 2.07812 0.878932 2.12469 0.718506 2.20145L6.14523 7.60084C6.62506 8.08066 7.40534 8.08066 7.88517 7.60084L13.3119 2.20145C13.1515 2.12469 12.9741 2.07812 12.7847 2.07812Z" fill="black" fill-opacity="0.7"/>
<path d="M0.138457 2.7814C0.0617031 2.94183 0.0151367 3.11915 0.0151367 3.30856V10.6914C0.0151367 10.8808 0.0617031 11.0581 0.138457 11.2185L4.38437 6.99997L0.138457 2.7814Z" fill="black" fill-opacity="0.7"/>
<path d="M9.06598 7.58002L8.46515 8.18084C7.66565 8.98035 6.36472 8.98035 5.56521 8.18084L4.96442 7.58002L0.718506 11.7986C0.878932 11.8753 1.05626 11.9219 1.24567 11.9219H12.7847C12.9741 11.9219 13.1515 11.8753 13.3119 11.7986L9.06598 7.58002Z" fill="black" fill-opacity="0.7"/>
</g>
<defs>
<clipPath id="clip0">
<rect width="14" height="14" fill="white" transform="translate(0.0151367)"/>
</clipPath>
</defs>
</svg>
