<svg width="12" height="25" viewBox="0 0 12 25" fill="none" xmlns="http://www.w3.org/2000/svg">
<path d="M11.39 0.292V3.828C10.3927 3.78267 9.86 3.76 9.792 3.76C8.93067 3.76 8.35267 3.88467 8.058 4.134C7.786 4.36067 7.65 4.83667 7.65 5.562V6.956H11.084V10.22H7.684V24.5H2.856V10.22H0V6.956H2.856V6.038C2.856 3.97533 3.32067 2.49067 4.25 1.584C5.17933 0.654666 6.72067 0.189999 8.874 0.189999C9.12333 0.189999 9.384 0.201332 9.656 0.223998C9.95067 0.223998 10.268 0.235332 10.608 0.257998C10.948 0.280666 11.2087 0.292 11.39 0.292Z" fill="#FF3737"/>
</svg>
