<svg width="19" height="19" viewBox="0 0 19 19" fill="none" xmlns="http://www.w3.org/2000/svg">
<g clip-path="url(#clip0)">
<path d="M2.28514 8.54053C1.25166 8.54053 0.410156 9.38203 0.410156 10.4155V16.4155C0.410156 17.449 1.25166 18.2905 2.28514 18.2905H4.53514C4.95741 18.2905 5.34588 18.148 5.66014 17.911V8.54053H2.28514Z" fill="white"/>
<path d="M18.4101 11.3526C18.4101 10.9019 18.2317 10.4819 17.9219 10.1721C18.2722 9.7889 18.4506 9.27513 18.4019 8.7404C18.3141 7.78714 17.4554 7.04014 16.4459 7.04014H11.8131C12.0426 6.34338 12.4101 5.06615 12.4101 4.04015C12.4101 2.4134 11.0279 1.04016 10.1601 1.04016C9.38089 1.04016 8.82437 1.47891 8.80039 1.49691C8.71191 1.56817 8.66016 1.67617 8.66016 1.79015V4.33339L6.50016 9.01265L6.41016 9.05839V17.0969C7.02064 17.3849 7.79313 17.5401 8.28514 17.5401H15.1694C15.9862 17.5401 16.7009 16.9896 16.8689 16.2299C16.9551 15.8391 16.9049 15.4454 16.7332 15.1034C17.2874 14.8244 17.6602 14.2536 17.6602 13.6026C17.6602 13.3371 17.5994 13.0829 17.4839 12.8527C18.0382 12.5737 18.4101 12.0029 18.4101 11.3526Z" fill="white"/>
</g>
<defs>
<clipPath id="clip0">
<rect width="18" height="18" fill="white" transform="translate(0.410156 0.665527)"/>
</clipPath>
</defs>
</svg>
