<svg width="14" height="15" viewBox="0 0 14 15" fill="none" xmlns="http://www.w3.org/2000/svg">
<g clip-path="url(#clip0)">
<path d="M7 0.5C4.1055 0.5 1.75 2.87183 1.75 5.78792C1.75 9.93133 6.5065 14.2095 6.70891 14.3892C6.79233 14.4632 6.89616 14.5 7 14.5C7.10383 14.5 7.20766 14.4633 7.29108 14.3898C7.4935 14.2095 12.25 9.93133 12.25 5.78792C12.25 2.87183 9.89449 0.5 7 0.5ZM7 8.66667C5.39175 8.66667 4.08333 7.35825 4.08333 5.75C4.08333 4.14175 5.39175 2.83333 7 2.83333C8.60824 2.83333 9.91666 4.14175 9.91666 5.75C9.91666 7.35825 8.60824 8.66667 7 8.66667Z" fill="black" fill-opacity="0.7"/>
</g>
<defs>
<clipPath id="clip0">
<rect width="14" height="14" fill="white" transform="translate(0 0.5)"/>
</clipPath>
</defs>
</svg>
