<svg width="18" height="19" viewBox="0 0 18 19" fill="none" xmlns="http://www.w3.org/2000/svg">
<g clip-path="url(#clip0)">
<path d="M9 0.5C5.2785 0.5 2.25 3.5495 2.25 7.29875C2.25 12.626 8.3655 18.1265 8.62575 18.3575C8.733 18.4527 8.8665 18.5 9 18.5C9.13349 18.5 9.26699 18.4528 9.37424 18.3582C9.63449 18.1265 15.75 12.626 15.75 7.29875C15.75 3.5495 12.7215 0.5 9 0.5ZM9 11C6.93225 11 5.25 9.31775 5.25 7.25C5.25 5.18225 6.93225 3.5 9 3.5C11.0677 3.5 12.75 5.18225 12.75 7.25C12.75 9.31775 11.0677 11 9 11Z" fill="white"/>
</g>
<defs>
<clipPath id="clip0">
<rect width="18" height="18" fill="white" transform="translate(0 0.5)"/>
</clipPath>
</defs>
</svg>
