<svg width="25" height="25" viewBox="0 0 25 25" fill="none" xmlns="http://www.w3.org/2000/svg">
<g clip-path="url(#clip0)">
<path d="M12.9102 0.665527C6.28296 0.665527 0.910156 6.03809 0.910156 12.6655C0.910156 19.293 6.28296 24.6655 12.9102 24.6655C19.5373 24.6655 24.9102 19.293 24.9102 12.6655C24.9102 6.03809 19.5373 0.665527 12.9102 0.665527ZM14.291 16.6514C13.181 16.6514 12.137 16.0513 11.7795 15.37C11.7795 15.37 11.1824 17.7381 11.0569 18.195C10.6118 19.8105 9.30242 21.4266 9.20053 21.5589C9.12957 21.651 8.97268 21.6223 8.95648 21.5C8.92873 21.2942 8.59433 19.2561 8.98766 17.5939C9.18433 16.7592 10.3093 11.9925 10.3093 11.9925C10.3093 11.9925 9.98179 11.3363 9.98179 10.3659C9.98179 8.84247 10.8647 7.7052 11.9642 7.7052C12.8989 7.7052 13.3501 8.40715 13.3501 9.24857C13.3501 10.1884 12.752 11.5938 12.4434 12.8961C12.1854 13.9864 12.9897 14.876 14.0651 14.876C16.0128 14.876 17.3237 12.3746 17.3237 9.41037C17.3237 7.15793 15.8073 5.47117 13.0472 5.47117C9.92974 5.47117 7.98568 7.79654 7.98568 10.3944C7.98568 11.2896 8.25035 11.9218 8.6643 12.4102C8.8541 12.6348 8.8811 12.7252 8.81211 12.983C8.76227 13.1723 8.65006 13.6275 8.60243 13.8075C8.53393 14.0682 8.32327 14.161 8.08732 14.065C6.65199 13.4789 5.98269 11.9061 5.98269 10.1381C5.98269 7.21808 8.44505 3.71666 13.3293 3.71666C17.254 3.71666 19.8371 6.55639 19.8371 9.60531C19.8374 13.6388 17.595 16.6514 14.291 16.6514Z" fill="#FF3737"/>
</g>
<defs>
<clipPath id="clip0">
<rect width="24" height="24" fill="white" transform="translate(0.910156 0.665527)"/>
</clipPath>
</defs>
</svg>
