<svg width="20" height="19" viewBox="0 0 20 19" fill="none" xmlns="http://www.w3.org/2000/svg">
<path d="M18.6089 13.7102L16.0341 11.1982C15.1146 10.3011 13.5513 10.66 13.1835 11.8262C12.9076 12.6337 11.9881 13.0822 11.1605 12.9028C9.32139 12.4542 6.83859 10.1217 6.37881 8.23772C6.10295 7.43027 6.65468 6.53314 7.48228 6.26404C8.6777 5.90519 9.04552 4.38007 8.12597 3.48295L5.55121 0.970991C4.81557 0.343003 3.71211 0.343003 3.06842 0.970991L1.32126 2.67553C-0.425889 4.46978 1.50517 9.22455 5.82708 13.441C10.149 17.6575 15.0226 19.6313 16.8617 17.837L18.6089 16.1324C19.2526 15.4147 19.2526 14.3382 18.6089 13.7102Z" fill="#FF3737"/>
</svg>
