<svg width="15" height="15" viewBox="0 0 15 15" fill="none" xmlns="http://www.w3.org/2000/svg">
<g clip-path="url(#clip0)">
<path d="M13.9595 10.7746L11.9569 8.82085C11.2417 8.12308 10.0258 8.40222 9.73977 9.30928C9.5252 9.9373 8.80999 10.2862 8.16631 10.1466C6.73589 9.79772 4.80482 7.98353 4.44722 6.51822C4.23266 5.89021 4.66178 5.19244 5.30547 4.98314C6.23524 4.70403 6.52133 3.51783 5.80612 2.82007L3.80353 0.866327C3.23136 0.377891 2.37311 0.377891 1.87247 0.866327L0.513571 2.19208C-0.845326 3.58761 0.656613 7.28576 4.01809 10.5653C7.37958 13.8448 11.1702 15.3799 12.6006 13.9843L13.9595 12.6586C14.4602 12.1003 14.4602 11.263 13.9595 10.7746Z" fill="black" fill-opacity="0.7"/>
</g>
<defs>
<clipPath id="clip0">
<rect width="14.35" height="14" fill="white" transform="translate(0 0.5)"/>
</clipPath>
</defs>
</svg>
