<svg width="19" height="19" viewBox="0 0 19 19" fill="none" xmlns="http://www.w3.org/2000/svg">
<g clip-path="url(#clip0)">
<path d="M17.9976 13.7102L15.4228 11.1982C14.5033 10.3011 12.94 10.66 12.5722 11.8262C12.2963 12.6337 11.3768 13.0822 10.5492 12.9028C8.71006 12.4542 6.22726 10.1217 5.76748 8.23772C5.49162 7.43027 6.04335 6.53314 6.87095 6.26404C8.06637 5.90519 8.43419 4.38007 7.51464 3.48295L4.93989 0.970991C4.20424 0.343003 3.10078 0.343003 2.45709 0.970991L0.709936 2.67553C-1.03722 4.46978 0.893847 9.22455 5.21575 13.441C9.53766 17.6575 14.4113 19.6313 16.2504 17.837L17.9976 16.1324C18.6413 15.4147 18.6413 14.3382 17.9976 13.7102Z" fill="white"/>
</g>
<defs>
<clipPath id="clip0">
<rect width="18.45" height="18" fill="white" transform="translate(0.0498047 0.5)"/>
</clipPath>
</defs>
</svg>
