<svg width="120" height="54" fill="none" xmlns="http://www.w3.org/2000/svg"><path d="M119.92 6.78H16.247C10.587 6.78 6 11.368 6 17.027v0c0 5.66 4.588 10.248 10.247 10.248H46.99c5.66 0 10.247 4.588 10.247 10.247v0c0 5.66-4.588 10.247-10.247 10.247H1.125M82.854 6.46v47.073" stroke="#FF3737" stroke-width="12"/><path d="M120 6.78H16.247C10.587 6.78 6 11.368 6 17.027v0c0 5.66 4.588 10.248 10.247 10.248H46.99c5.66 0 10.247 4.588 10.247 10.247v0c0 5.66-4.588 10.247-10.247 10.247H.625M82.854 6.46v47.073" stroke="#fff" stroke-width="1.3"/></svg>