<svg width="937" height="610" fill="none" xmlns="http://www.w3.org/2000/svg"><path d="M88 608.09c38.246 0 69.25-31.004 69.25-69.25 0-38.245-31.004-69.25-69.25-69.25-38.246 0-69.25 31.005-69.25 69.25 0 38.246 31.004 69.25 69.25 69.25z" stroke="#FF3737" stroke-width="2" stroke-miterlimit="10" stroke-dasharray="12.04 12.04"/><circle cx="674.84" cy="262.5" r="73.5" fill="#FF3737"/><circle cx="20.75" cy="556.59" r="18.75" stroke="#FF3737" stroke-width="2"/><path d="M935.34 262.344l-4.254 8.198 3.735 8.508-4.773 7.99 3.113 8.613-5.292 7.678 2.698 8.82-5.811 7.264 2.075 9.027-6.226 6.849 1.557 9.235-6.745 6.433.934 9.235-7.056 5.915.311 9.338-7.471 5.5-.311 9.235-7.782 5.084-.83 9.235-8.094 4.566-1.557 9.131-8.301 3.943-2.075 9.131-8.612 3.425-2.594 8.923-8.82 2.906-3.217 8.716-8.924 2.283-3.735 8.508-9.132 1.764-4.254 8.198-9.235 1.245-4.773 7.886-9.235.623-5.292 7.574h-9.235l-5.811 7.264-9.235-.519-6.226 6.849-9.235-1.246-6.641 6.434-9.131-1.764-7.056 6.018-8.924-2.387-7.471 5.604-8.716-3.009-7.782 5.084-8.613-3.424-8.093 4.462-8.301-3.943-8.405 3.943-8.094-4.462-8.612 3.424-7.679-5.084-8.82 3.009-7.471-5.604-8.923 2.387-7.056-6.018-9.132 1.764-6.641-6.434-9.235 1.246-6.225-6.849-9.235.519-5.811-7.264h-9.235l-5.292-7.574-9.235-.623-4.773-7.886-9.235-1.245-4.255-8.198-9.131-1.764-3.736-8.508-8.923-2.283-3.217-8.716-8.82-2.906-2.594-8.923-8.612-3.528-2.076-9.028-8.301-3.943-1.556-9.131-8.094-4.566-.83-9.235-7.782-5.084-.312-9.235-7.471-5.5.312-9.338-7.056-6.019.934-9.131-6.641-6.537 1.452-9.131-6.225-6.849 2.075-9.027-5.811-7.264 2.698-8.82-5.292-7.678 3.217-8.613-4.877-7.99 3.839-8.508-4.358-8.198 4.358-8.197-3.839-8.509 4.877-7.886-3.217-8.716 5.292-7.575-2.698-8.923 5.811-7.264-2.075-9.027 6.225-6.849-1.452-9.131 6.641-6.434-.934-9.235 7.056-6.018-.312-9.235 7.471-5.603.312-9.235 7.782-4.981.83-9.235 8.094-4.565 1.556-9.132 8.301-4.046 2.076-9.028 8.612-3.528 2.594-8.82 8.82-2.905 3.217-8.716 8.923-2.387 3.736-8.405 9.131-1.868 4.255-8.197 9.235-1.142 4.773-7.99 9.235-.622 5.292-7.575h9.339l5.707-7.263 9.235.622 6.225-6.848 9.235 1.141 6.641-6.433 9.132 1.764 7.056-6.018 8.923 2.386 7.471-5.5 8.82 2.906 7.679-5.084 8.612 3.528L666.487 2l8.405 4.047L683.193 2l8.093 4.566 8.613-3.528 7.782 5.084 8.716-2.905 7.471 5.5 8.924-2.387 7.056 6.018 9.131-1.764 6.641 6.433 9.235-1.141 6.226 6.848 9.235-.622 5.811 7.263h9.235l5.292 7.575 9.235.623 4.773 7.99 9.235 1.14 4.254 8.198 9.132 1.868 3.735 8.405 8.924 2.386 3.217 8.717 8.82 2.905 2.594 8.924 8.612 3.424 2.075 9.028 8.301 4.046 1.557 9.132 8.094 4.565.83 9.235 7.782 4.981.311 9.339 7.471 5.499-.311 9.235 7.056 6.018-.934 9.235 6.745 6.434-1.557 9.131 6.226 6.849-2.075 9.027 5.811 7.264-2.698 8.923 5.292 7.575-3.113 8.716 4.773 7.886-3.735 8.509 4.254 8.197z" stroke="#FF3737" stroke-width="2" stroke-miterlimit="10"/><path fill="#C4C4C4" d="M65.727 168.16h556.886v365.681H65.727z"/><path stroke="#FF3737" stroke-width="2" d="M1 126h686.34v450H1z"/></svg>