<svg width="937" height="610" viewBox="0 0 937 610" fill="none" xmlns="http://www.w3.org/2000/svg">
<path d="M88.0001 608.09C126.246 608.09 157.25 577.086 157.25 538.84C157.25 500.595 126.246 469.59 88.0001 469.59C49.7543 469.59 18.75 500.595 18.75 538.84C18.75 577.086 49.7543 608.09 88.0001 608.09Z" stroke="#FF3737" stroke-width="2" stroke-miterlimit="10" stroke-dasharray="12.04 12.04"/>
<circle cx="674.84" cy="262.5" r="73.5" fill="#FF3737"/>
<circle cx="20.75" cy="556.59" r="18.75" stroke="#FF3737" stroke-width="2"/>
<path d="M935.34 262.344L931.086 270.542L934.821 279.05L930.048 287.04L933.161 295.653L927.869 303.331L930.567 312.151L924.756 319.415L926.831 328.442L920.605 335.291L922.162 344.526L915.417 350.959L916.351 360.194L909.295 366.109L909.606 375.447L902.135 380.947L901.824 390.182L894.042 395.266L893.212 404.501L885.118 409.067L883.561 418.198L875.26 422.141L873.185 431.272L864.573 434.697L861.979 443.62L853.159 446.526L849.942 455.242L841.018 457.525L837.283 466.033L828.151 467.797L823.897 475.995L814.662 477.24L809.889 485.126L800.654 485.749L795.362 493.323H786.127L780.316 500.587L771.081 500.068L764.855 506.917L755.62 505.671L748.979 512.105L739.848 510.341L732.792 516.359L723.868 513.972L716.397 519.576L707.681 516.567L699.899 521.651L691.286 518.227L683.193 522.689L674.892 518.746L666.487 522.689L658.393 518.227L649.781 521.651L642.102 516.567L633.282 519.576L625.811 513.972L616.888 516.359L609.832 510.341L600.7 512.105L594.059 505.671L584.824 506.917L578.599 500.068L569.364 500.587L563.553 493.323H554.318L549.026 485.749L539.791 485.126L535.018 477.24L525.783 475.995L521.528 467.797L512.397 466.033L508.661 457.525L499.738 455.242L496.521 446.526L487.701 443.62L485.107 434.697L476.495 431.169L474.419 422.141L466.118 418.198L464.562 409.067L456.468 404.501L455.638 395.266L447.856 390.182L447.544 380.947L440.073 375.447L440.385 366.109L433.329 360.09L434.263 350.959L427.622 344.422L429.074 335.291L422.849 328.442L424.924 319.415L419.113 312.151L421.811 303.331L416.519 295.653L419.736 287.04L414.859 279.05L418.698 270.542L414.34 262.344L418.698 254.147L414.859 245.638L419.736 237.752L416.519 229.036L421.811 221.461L419.113 212.538L424.924 205.274L422.849 196.247L429.074 189.398L427.622 180.267L434.263 173.833L433.329 164.598L440.385 158.58L440.073 149.345L447.544 143.742L447.856 134.507L455.638 129.526L456.468 120.291L464.562 115.726L466.118 106.594L474.419 102.548L476.495 93.52L485.107 89.992L487.701 81.1721L496.521 78.2667L499.738 69.5505L508.661 67.1639L512.397 58.759L521.528 56.8913L525.783 48.6939L535.018 47.5525L539.791 39.5626L549.026 38.9401L554.318 31.3653H563.657L569.364 24.1018L578.599 24.7244L584.824 17.8759L594.059 19.0173L600.7 12.5839L609.832 14.3479L616.888 8.32962L625.811 10.7162L633.282 5.21669L642.102 8.12209L649.781 3.03764L658.393 6.56562L666.487 2L674.892 6.0468L683.193 2L691.286 6.56562L699.899 3.03764L707.681 8.12209L716.397 5.21669L723.868 10.7162L732.792 8.32962L739.848 14.3479L748.979 12.5839L755.62 19.0173L764.855 17.8759L771.081 24.7244L780.316 24.1018L786.127 31.3653H795.362L800.654 38.9401L809.889 39.5626L814.662 47.5525L823.897 48.6939L828.151 56.8913L837.283 58.759L841.018 67.1639L849.942 69.5505L853.159 78.2667L861.979 81.1721L864.573 90.0958L873.185 93.52L875.26 102.548L883.561 106.594L885.118 115.726L893.212 120.291L894.042 129.526L901.824 134.507L902.135 143.846L909.606 149.345L909.295 158.58L916.351 164.598L915.417 173.833L922.162 180.267L920.605 189.398L926.831 196.247L924.756 205.274L930.567 212.538L927.869 221.461L933.161 229.036L930.048 237.752L934.821 245.638L931.086 254.147L935.34 262.344Z" stroke="#FF3737" stroke-width="2" stroke-miterlimit="10"/>
<rect x="65.7268" y="168.16" width="556.886" height="365.681" fill="#C4C4C4"/>
<rect x="1" y="126" width="686.34" height="450" stroke="#FF3737" stroke-width="2"/>
</svg>
